HIERARCHY
ROOT Hips
{
  OFFSET 3.13124 94.3669 -3.18751
  CHANNELS  6 Xposition Yposition Zposition Zrotation Xrotation Yrotation
  JOINT LeftUpLeg
  {
    OFFSET 8.64259 1.95398 -2.38835
    CHANNELS 3 Zrotation Xrotation Yrotation
    JOINT LeftLeg
    {
      OFFSET 43.7702 0 0
      CHANNELS 3 Zrotation Xrotation Yrotation
      JOINT LeftFoot
      {
        OFFSET 40.6238 0 0
        CHANNELS 3 Zrotation Xrotation Yrotation
        JOINT LeftToeBase
        {
          OFFSET 12.7242 0 0
          CHANNELS 3 Zrotation Xrotation Yrotation
          End Site
          {
            OFFSET 0 0 0
          }
        }
      }
    }
  }
  JOINT RightUpLeg
  {
    OFFSET -8.2249 1.95398 -2.59336
    CHANNELS 3 Zrotation Xrotation Yrotation
    JOINT RightLeg
    {
      OFFSET 43.5653 0 0
      CHANNELS 3 Zrotation Xrotation Yrotation
      JOINT RightFoot
      {
        OFFSET 40.6238 0 0
        CHANNELS 3 Zrotation Xrotation Yrotation
        JOINT RightToeBase
        {
          OFFSET 12.7242 0 0
          CHANNELS 3 Zrotation Xrotation Yrotation
          End Site
          {
            OFFSET 0 0 0
          }
        }
      }
    }
  }
  JOINT Spine
  {
    OFFSET 0.165834 0.87714 6.61349
    CHANNELS 3 Zrotation Xrotation Yrotation
    JOINT Spine1
    {
      OFFSET 7.38962 1.71661e-005 0
      CHANNELS 3 Zrotation Xrotation Yrotation
      JOINT Spine2
      {
        OFFSET 11.9445 1.14441e-005 0
        CHANNELS 3 Zrotation Xrotation Yrotation
        JOINT Spine3
        {
          OFFSET 14.7254 4.19617e-005 0
          CHANNELS 3 Zrotation Xrotation Yrotation
          JOINT Spine4
          {
            OFFSET 10.9679 0 0
            CHANNELS 3 Zrotation Xrotation Yrotation
            JOINT RightShoulder
            {
              OFFSET 2.46616 -1.6653 3.69651
              CHANNELS 3 Zrotation Xrotation Yrotation
              JOINT RightArm
              {
                OFFSET 13.0012 0 0
                CHANNELS 3 Zrotation Xrotation Yrotation
                JOINT RightForeArm
                {
                  OFFSET 28.7848 1.52588e-005 0
                  CHANNELS 3 Zrotation Xrotation Yrotation
                  JOINT RightHand
                  {
                    OFFSET 26.5688 1.52588e-005 0
                    CHANNELS 3 Zrotation Xrotation Yrotation
                    End Site
                    {
                      OFFSET 0 0 0
                    }
                  }
                }
              }
            }
            JOINT LeftShoulder
            {
              OFFSET 2.38034 -1.29275 -3.75231
              CHANNELS 3 Zrotation Xrotation Yrotation
              JOINT LeftArm
              {
                OFFSET 16.3182 6.10352e-005 0
                CHANNELS 3 Zrotation Xrotation Yrotation
                JOINT LeftForeArm
                {
                  OFFSET 27.0901 0 0
                  CHANNELS 3 Zrotation Xrotation Yrotation
                  JOINT LeftHand
                  {
                    OFFSET 24.5451 1.52588e-005 0
                    CHANNELS 3 Zrotation Xrotation Yrotation
                    End Site
                    {
                      OFFSET 0 0 0
                    }
                  }
                }
              }
            }
            JOINT Neck
            {
              OFFSET 5.0226 -0.0266342 0
              CHANNELS 3 Zrotation Xrotation Yrotation
              JOINT Head
              {
                OFFSET 6.69363 2.86102e-005 0
                CHANNELS 3 Zrotation Xrotation Yrotation
                End Site
                {
                  OFFSET 0 0 0
                }
              }
            }
          }
        }
      }
    }
  }
}
MOTION
Frames:	16
Frame Time:	0.0333333
14.6481 91.5176 -74.0412 -21.6946 -80.5147 -14.0454 -171.948 19.2607 97.6104 -24.7716 11.9302 8.81959 70.844 3.22605 1.71288 28.7808 4.89727e-006 1.41225e-005 -178.698 26.1088 93.0309 -3.97971 5.92277 0.315689 27.8036 1.2022 2.52597 28.7808 1.23437e-005 2.268e-005 -1.37151 7.08884 -87.9611 12.7025 -1.56142 3.79588 1.02679 -1.39292 3.86128 -21.4829 -2.62987 3.15402 -1.47032 -2.62987 3.15402 103.966 6.15405 -73.4915 -0.244529 23.6725 -4.01139 -4.45474 -27.2367 -5.0462 -45.3886 7.75534 -23.7969 -113.679 -66.6397 52.6939 -5.10297 -19.4687 3.58445 1.90495 -22.2552 -2.90067 15.2895 3.9855 21.4338 28.2647 2.2864 46.4629 -1.06363 -16.5718 -0.324228 
14.2523 91.4522 -73.8523 7.74569 -79.847 15.5838 -172.851 20.8831 97.4131 -24.8905 15.6987 9.80237 70.3848 3.10573 1.67383 28.7808 4.89727e-006 1.41225e-005 -179.364 25.5216 91.8337 -4.84923 1.15509 0.0413546 33.7865 1.39035 2.36546 28.7808 1.23437e-005 2.268e-005 -1.27476 7.07981 -88.3047 12.734 -1.68017 3.79961 1.05843 -1.51134 3.87035 -21.453 -2.74472 3.12126 -1.44036 -2.74474 3.12127 103.917 6.88385 -73.5068 -0.358509 23.549 -3.13479 -4.44722 -27.0832 -5.04359 -46.3657 7.78257 -23.4347 -113.123 -66.4755 53.291 -3.81175 -19.8627 3.21218 1.86975 -24.9204 -2.85954 13.4476 4.05593 24.8444 27.0391 0.783026 47.1765 0.492018 -17.7014 -0.36491 
13.7079 91.3375 -73.4853 30.6129 -76.9884 38.4591 -173.852 22.2004 97.0242 -24.9923 19.6448 10.8458 69.9345 3.00112 1.6404 28.7808 4.89727e-006 1.41225e-005 179.997 25.0811 90.6426 -7.49636 -5.05137 -0.305209 41.7819 2.4849 2.89575 28.7808 1.23437e-005 2.268e-005 -1.19375 7.08051 -88.5559 12.7489 -1.76872 3.90364 1.07313 -1.59535 3.97757 -21.4376 -2.85962 3.19549 -1.42495 -2.85962 3.19548 103.906 6.89509 -73.5729 -0.917485 23.5306 -2.00656 -4.43299 -26.7924 -5.03874 -46.9347 7.29039 -22.0965 -111.237 -66.0866 55.4058 -4.19233 -19.7084 3.61546 1.87209 -24.7379 -2.86233 14.3197 3.97221 22.698 25.3068 -1.22119 46.1983 3.35896 -18.3136 0.733814 
13.3273 91.4233 -72.4432 40.8129 -75.4944 49.5653 -173.872 21.6564 97.6713 -25.0458 22.0952 11.9761 70.0941 2.97967 1.62681 28.7808 4.89727e-006 1.41225e-005 -179.862 22.1629 91.3248 -8.42348 -12.4821 -0.705241 47.9383 4.59846 4.14468 28.7808 1.23437e-005 2.268e-005 -0.880842 7.15887 -88.6436 12.5761 -1.18701 3.75061 0.900174 -1.02092 3.79913 -21.6052 -2.25889 3.22067 -1.59253 -2.25889 3.22066 103.926 6.67071 -73.55 -1.37111 23.5055 -1.07888 -4.41417 -26.4055 -5.03239 -48.0078 6.79587 -20.5542 -109.076 -65.643 57.8566 -4.31747 -19.5631 4.50076 1.83699 -27.4867 -2.82073 13.9023 2.85386 15.873 24.4648 -3.07341 45.2911 5.60876 -19.2423 0.995094 
12.5367 91.3684 -71.659 47.679 -71.8405 57.0787 -174.558 22.9631 98.0243 -25.3803 25.0796 13.118 70.0161 2.61438 1.44991 28.7808 4.89727e-006 1.41225e-005 -179.78 21.0374 91.7209 -9.6676 -17.5837 -0.977462 53.9094 6.24538 4.80509 28.7808 1.23437e-005 2.268e-005 -0.709433 7.09326 -88.7835 12.7023 -0.95913 3.66657 1.02644 -0.797099 3.70496 -21.4781 -2.01527 3.21099 -1.46543 -2.01527 3.211 103.943 6.46145 -73.4871 -1.50776 23.4776 -0.694355 -4.42777 -26.6844 -5.03695 -48.3315 6.11994 -18.9425 -107.043 -65.0644 60.1341 -4.46539 -19.5273 4.49373 1.80048 -30.4556 -2.77637 16.0336 2.77192 12.9507 22.7795 -4.88326 44.3346 8.70982 -19.809 0.781406 
11.6953 91.137 -70.9457 53.1187 -67.1884 62.8113 -175.721 24.8869 97.6773 -26.7443 27.9183 14.7271 69.9565 2.49874 1.38825 28.7808 4.89727e-006 1.41225e-005 -179.8 20.3338 91.6313 -9.71714 -16.1172 -0.892056 57.5497 6.1342 4.32586 28.7808 1.23437e-005 2.268e-005 -0.680818 7.03435 -88.8203 12.8201 -0.946048 3.63011 1.14429 -0.785475 3.66819 -21.3607 -1.99281 3.17874 -1.34806 -1.99281 3.17874 103.921 6.34665 -73.7005 -1.76227 23.4824 -0.303285 -4.48843 -27.9183 -5.05811 -47.3965 5.41809 -17.6382 -105.178 -64.4873 62.246 -6.96268 -18.4895 8.32346 1.96328 -18.0573 -2.96747 18.7184 0.717834 -0.0822818 20.9617 -6.49221 42.7933 12.1818 -19.9246 1.35838 
10.9171 90.7621 -70.4136 58.4041 -62.1889 67.7159 -177.188 26.5166 96.6599 -28.753 30.2411 16.2272 69.9511 2.37781 1.32328 28.7808 4.89727e-006 1.41225e-005 179.974 20.1191 90.8154 -9.97919 -7.95964 -0.446891 60.2182 6.99232 4.54696 28.7808 1.23437e-005 2.268e-005 -0.662606 7.05839 -88.8466 12.7725 -0.970623 3.63923 1.09667 -0.809642 3.67834 -21.4085 -2.01898 3.1802 -1.39584 -2.019 3.18019 103.833 6.65792 -74.0253 -1.60002 23.4338 -0.332344 -4.54169 -28.9807 -5.07758 -47.2673 4.18443 -14.8386 -105.298 -63.9767 61.911 -5.17978 -18.9019 8.23722 1.85894 -25.7803 -2.84681 14.8092 -0.0239004 -3.91528 18.9385 -8.14308 41.0125 15.7283 -19.9309 2.33477 
10.1716 90.5782 -69.9233 62.3542 -58.2441 71.2926 -177.885 27.3455 95.9831 -29.7774 30.9742 16.4657 69.679 1.94789 1.10615 28.7808 4.89727e-006 1.41225e-005 179.833 19.656 90.4891 -10.9723 -3.6698 -0.21275 62.1556 5.50351 3.43514 28.7808 1.23437e-005 2.268e-005 -0.475364 7.10957 -88.9203 12.6605 -0.634004 3.59328 0.984677 -0.475354 3.61775 -21.5179 -1.68415 3.23732 -1.50525 -1.68417 3.23728 103.704 7.13146 -74.5133 -2.09998 23.3021 1.19047 -4.6963 -31.9577 -5.13999 -48.2255 4.94196 -16.3236 -105.115 -62.9277 61.7804 -3.96862 -19.1624 8.35469 1.8167 -29.1286 -2.79628 11.1421 -0.234513 -5.57283 15.949 -10.4058 38.8795 20.0897 -20.111 3.32119 
9.37676 90.6611 -69.5167 64.6691 -55.7373 73.506 -177.668 27.7748 95.6219 -29.139 28.373 15.2047 68.5355 1.73473 0.985156 28.7808 4.89727e-006 1.41225e-005 -179.975 19.0864 90.899 -10.9615 0.95579 0.0424497 61.9263 3.23563 2.09661 28.7808 1.23437e-005 2.268e-005 -0.208261 7.136 -88.9085 12.5929 -0.143919 3.49912 0.917263 0.00997226 3.50059 -21.5834 -1.18745 3.29425 -1.57082 -1.18746 3.29422 103.565 6.69703 -75.3763 -1.18513 23.3516 -0.572931 -4.60157 -30.1535 -5.10093 -44.4121 3.01141 -12.6483 -103.014 -62.0304 64.1316 -3.2708 -19.4789 7.15718 1.76813 -33.2389 -2.73633 10.4392 -0.31772 -6.3834 14.0093 -11.7679 36.6165 23.1858 -19.9747 3.82267 
8.28341 91.0025 -69.4136 63.9764 -56.0989 74.2563 -175.972 28.9982 96.8366 -28.1348 22.2368 12.9679 66.6185 1.99556 1.09074 28.7808 4.89727e-006 1.41225e-005 -178.962 17.6925 92.7757 -6.41165 2.01596 0.106872 58.8424 1.44556 1.11945 28.7808 1.23437e-005 2.268e-005 0.218175 7.03509 -88.7341 12.7782 0.933878 2.9915 1.10419 1.06462 2.94755 -21.4032 -0.00787776 3.13376 -1.39052 -0.00788896 3.13374 103.393 6.67242 -76.2546 -0.579441 23.2857 -1.27149 -4.78811 -33.6447 -5.18011 -42.9747 1.88436 -10.0213 -101.522 -61.3743 65.8367 -3.96908 -19.2645 7.54524 1.82996 -28.0631 -2.81221 11.9282 -0.610578 -8.50751 12.8443 -12.2782 35.8749 24.1456 -20.1191 2.76657 
7.96357 91.2263 -69.0039 66.1806 -52.976 76.1704 -175.472 29.007 95.9032 -26.6341 19.1011 11.4288 64.916 1.90296 1.02388 28.7808 4.89727e-006 1.41225e-005 -178.982 16.6089 92.492 -5.68909 4.57601 0.256041 58.5793 0.713978 0.650846 28.7808 1.23437e-005 2.268e-005 0.304503 7.02876 -88.7173 12.7894 1.14998 2.8302 1.11595 1.27283 2.77687 -21.3948 0.246644 3.04475 -1.38215 0.246628 3.04473 103.266 6.41261 -76.9559 -1.2148 23.4015 -0.766365 -5.19054 -40.3694 -5.38726 -44.0435 2.59422 -11.6647 -101.914 -61.1338 65.2397 -3.81471 -19.1603 8.63741 1.87746 -24.3304 -2.86862 15.7985 -0.982245 -9.94398 11.236 -13.238 34.8491 26.0253 -20.415 2.20524 
7.69036 91.3055 -68.7532 68.6692 -48.6277 78.2834 -175.396 29.1508 94.7582 -25.6469 18.6426 10.5481 63.4825 1.83774 0.97783 28.7808 4.89727e-006 1.41225e-005 -179.169 15.9483 91.9491 -6.12441 8.70638 0.502128 59.3599 0.218532 0.309555 28.7808 1.23437e-005 2.268e-005 0.367124 7.02668 -88.8282 12.7946 1.20348 2.64643 1.12158 1.31846 2.59094 -21.3923 0.352845 2.88559 -1.37968 0.352836 2.88556 103.189 6.24817 -77.4155 -0.734624 23.4582 -1.93612 -5.28394 -41.7735 -5.44057 -41.5109 1.03948 -7.96587 -101.191 -60.5119 65.9819 -3.75746 -19.1141 9.09854 1.89623 -22.9066 -2.89053 18.52 -1.432 -11.6305 9.58366 -14.603 33.3906 27.292 -20.8997 2.20072 
7.45374 91.2623 -68.5578 70.96 -44.1993 80.2382 -175.351 29.0679 93.876 -25.0596 21.7963 10.5044 62.5081 1.79869 0.953992 28.7808 4.89727e-006 1.41225e-005 -179.341 15.575 91.5624 -7.47485 13.0286 0.771786 60.4805 -0.255393 -0.0143116 28.7808 1.23437e-005 2.268e-005 0.545246 7.01368 -88.99 12.8171 1.44956 2.46645 1.14472 1.55668 2.4003 -21.3734 0.641607 2.78784 -1.36075 0.641592 2.78782 103.082 5.86553 -77.9744 -0.529418 23.337 -1.64179 -5.28131 -41.7349 -5.43901 -41.7891 -0.0036777 -5.15324 -101.129 -59.2428 65.6551 -3.37428 -19.1131 9.73864 1.8708 -24.8288 -2.86081 19.7931 -2.23401 -15.3248 7.23191 -16.7146 30.8302 28.7472 -21.5197 3.11742 
7.24403 91.1406 -68.3925 72.787 -40.1718 82.0252 -175.364 29.0137 93.491 -24.8473 25.6395 10.8188 61.9883 1.15166 0.577409 28.7808 4.89727e-006 1.41225e-005 -179.354 15.1618 91.5165 -8.6729 17.3323 1.05791 61.6148 -0.901732 -0.435291 28.7808 1.23437e-005 2.268e-005 0.772213 7.00769 -89.1745 12.8239 1.78233 2.22601 1.1525 1.87853 2.14543 -21.3717 1.03119 2.65849 -1.35908 1.03117 2.65848 103.026 5.5807 -78.2509 -0.712711 23.1503 -0.304122 -5.34758 -42.6991 -5.4783 -41.9782 0.0985105 -5.42208 -100.999 -57.8551 65.3667 -2.06446 -19.4772 9.15776 1.74788 -35.0277 -2.71065 16.7646 -2.79594 -20.319 4.79732 -18.2762 28.6583 30.0494 -21.999 3.21385 
7.04757 91.0485 -68.2592 74.3549 -36.9007 83.8456 -175.113 28.8292 93.4998 -24.7784 29.1957 11.1999 61.8103 0.377188 0.121438 28.7808 4.89727e-006 1.41225e-005 -179.144 14.4285 91.9064 -9.20334 21.3202 1.34308 62.3472 -1.34827 -0.722121 28.7808 1.23437e-005 2.268e-005 0.965787 7.01495 -89.3079 12.8073 2.09713 1.9685 1.13676 2.18169 1.8743 -21.3938 1.40877 2.50757 -1.38118 1.40876 2.50756 102.983 4.55995 -78.6261 -0.929508 23.1153 0.275423 -5.41082 -43.594 -5.51672 -40.7637 -0.772166 -3.06208 -100.093 -56.5722 66.1767 -1.29983 -19.6723 8.97438 1.74245 -35.5138 -2.70373 19.553 -2.53688 -16.9667 3.16609 -19.6212 25.4487 31.2669 -22.1708 3.95904 
6.8585 90.9757 -68.3168 75.3954 -33.7396 84.8777 -175.262 28.8707 92.9702 -24.6611 31.3877 11.5488 61.339 -0.294229 -0.287614 28.7808 4.89727e-006 1.41225e-005 -179.128 14.0446 91.8785 -9.72564 24.6473 1.59814 62.9051 -1.83929 -1.02528 28.7808 1.23437e-005 2.268e-005 1.11081 7.01376 -89.3963 12.8079 2.33094 1.81913 1.13794 2.40871 1.71476 -21.3971 1.67661 2.43543 -1.38446 1.67661 2.43542 102.862 3.3252 -79.3137 -1.33191 23.0949 1.04834 -5.36207 -42.9066 -5.48703 -42.0882 -0.76818 -3.13778 -98.4444 -55.4663 68.0631 -1.66154 -19.6359 8.67651 1.76989 -33.0844 -2.7386 23.4525 -2.17336 -13.3844 1.48891 -20.4125 22.4974 32.9392 -21.9932 4.34081 
